<svg xmlns="http://www.w3.org/2000/svg" viewBox="0 0 1200 560" role="img" aria-labelledby="t d"><title id="t">资产负债表冲击如何传导到股票行业</title><desc id="d">从地产下行到行业盈利和股权风险溢价的路径图</desc><defs><marker id="a" markerWidth="8" markerHeight="8" refX="7" refY="4" orient="auto"><path d="M0 0l8 4-8 4z" fill="#78958b"/></marker><filter id="s"><feDropShadow dx="0" dy="6" stdDeviation="9" flood-opacity=".08"/></filter></defs><rect width="1200" height="560" rx="24" fill="#fafafa"/><g font-family="system-ui,-apple-system,'Noto Sans SC',sans-serif"><text x="58" y="55" font-size="24" font-weight="750" fill="#111">从宏观冲击到权益定价：五个传导层</text><text x="58" y="83" font-size="14" fill="#777">阅读方法：先判断冲击处在哪一层，再决定看盈利、估值还是风险溢价</text><g filter="url(#s)"><rect x="58" y="145" width="185" height="112" rx="14" fill="#f5e3e3" stroke="#ead0d0"/><rect x="289" y="145" width="185" height="112" rx="14" fill="#f7eee0" stroke="#eadfca"/><rect x="520" y="145" width="185" height="112" rx="14" fill="#edf3f1" stroke="#d5e3df"/><rect x="751" y="145" width="185" height="112" rx="14" fill="#e8f0f5" stroke="#d2e0e8"/><rect x="982" y="145" width="160" height="112" rx="14" fill="#ece8f3" stroke="#ddd6ec"/></g><g text-anchor="middle" fill="#111" font-size="17" font-weight="700"><text x="150" y="184">资产冲击</text><text x="381" y="184">信用与财政</text><text x="612" y="184">需求与价格</text><text x="843" y="184">盈利与现金流</text><text x="1062" y="184">估值与组合</text></g><g text-anchor="middle" fill="#666" font-size="13"><text x="150" y="213">房价 · 土地 · 股票</text><text x="381" y="213">坏账 · LGFV · 利率</text><text x="612" y="213">消费 · 投资 · 通胀</text><text x="843" y="213">毛利 · ROIC · 分红</text><text x="1062" y="213">PE · 股息率 · β</text></g><g stroke="#78958b" stroke-width="3" fill="none" marker-end="url(#a)"><path d="M243 201h40"/><path d="M474 201h40"/><path d="M705 201h40"/><path d="M936 201h36"/></g><path d="M610 326c-160 0-270 85-270 126" fill="none" stroke="#a44f4f" stroke-width="2.5" stroke-dasharray="8 8" marker-end="url(#a)"/><text x="315" y="342" font-size="13" fill="#a44f4f">政策再分配：谁承担损失？</text><path d="M842 326c150 0 252 78 252 126" fill="none" stroke="#4d6b61" stroke-width="2.5" stroke-dasharray="8 8" marker-end="url(#a)"/><text x="905" y="342" font-size="13" fill="#4d6b61">相对收益：谁获得现金流？</text><g filter="url(#s)"><rect x="178" y="414" width="290" height="73" rx="12" fill="#fff" stroke="#ddd"/><rect x="728" y="414" width="290" height="73" rx="12" fill="#fff" stroke="#ddd"/></g><text x="323" y="445" text-anchor="middle" font-size="15" font-weight="700">日本式风险</text><text x="323" y="469" text-anchor="middle" font-size="13" fill="#777">延后确认 → 僵尸企业 → 盈利普遍低迷</text><text x="873" y="445" text-anchor="middle" font-size="15" font-weight="700">中国式机会</text><text x="873" y="469" text-anchor="middle" font-size="13" fill="#777">结构分化 → 现金流/政策/外需三类资产</text></g></svg>
